<svg width="38" height="24" viewBox="0 0 38 24" fill="none" xmlns="http://www.w3.org/2000/svg">
<path d="M18.75 0C9.43125 0 0 2.85415 0 8.30769V15.6923C0 21.1458 9.43125 24 18.75 24C28.0688 24 37.5 21.1458 37.5 15.6923V8.30769C37.5 2.85415 28.0688 0 18.75 0ZM3.75 15.6923V13.4825C4.93752 14.1446 6.19499 14.677 7.5 15.0702V18.5428C5.04 17.5938 3.75 16.464 3.75 15.6923ZM26.25 15.9655V19.6043C24.6244 19.9348 22.7494 20.1766 20.625 20.2652V16.5729C22.512 16.4989 24.3915 16.296 26.25 15.9655ZM16.875 20.2671C14.985 20.1958 13.1039 19.9748 11.25 19.6062V15.9674C13.0481 16.2886 14.9475 16.4972 16.875 16.5766V20.2671ZM30 18.5428V15.0702C31.3053 14.6778 32.5629 14.1454 33.75 13.4825V15.6923C33.75 16.464 32.4619 17.5938 30 18.5428ZM18.75 12.9231C9.04313 12.9231 3.75 9.87508 3.75 8.30769C3.75 6.74031 9.04313 3.69231 18.75 3.69231C28.4569 3.69231 33.75 6.74031 33.75 8.30769C33.75 9.87508 28.4569 12.9231 18.75 12.9231Z" fill="black"/>
</svg>
