<svg width="30" height="30" viewBox="0 0 55 55" fill="none" xmlns="http://www.w3.org/2000/svg">
<path d="M39.8627 10.1379C37.1012 10.1379 34.8627 12.3765 34.8627 15.1379C34.8627 17.8994 37.1012 20.1379 39.8627 20.1379C42.624 20.1379 44.8627 17.8994 44.8627 15.1379C44.8627 12.3765 42.624 10.1379 39.8627 10.1379Z" fill="black"/>
<path d="M34.8627 39.7302C34.8627 36.9687 37.1012 34.7302 39.8627 34.7302C42.624 34.7302 44.8627 36.9687 44.8627 39.7302C44.8627 42.4917 42.624 44.7302 39.8627 44.7302C37.1012 44.7302 34.8627 42.4917 34.8627 39.7302Z" fill="black"/>
<path d="M15.1379 34.7302C12.3765 34.7302 10.1379 36.9687 10.1379 39.7302C10.1379 42.4917 12.3765 44.7302 15.1379 44.7302C17.8994 44.7302 20.1379 42.4917 20.1379 39.7302C20.1379 36.9687 17.8994 34.7302 15.1379 34.7302Z" fill="black"/>
<path d="M10.1379 15.1379C10.1379 12.3765 12.3765 10.1379 15.1379 10.1379C17.8994 10.1379 20.1379 12.3765 20.1379 15.1379C20.1379 17.8994 17.8994 20.1379 15.1379 20.1379C12.3765 20.1379 10.1379 17.8994 10.1379 15.1379Z" fill="black"/>
<path d="M39.8627 22.4341C37.1012 22.4341 34.8627 24.6728 34.8627 27.434C34.8627 30.1955 37.1012 32.434 39.8627 32.434C42.624 32.434 44.8627 30.1955 44.8627 27.434C44.8627 24.6728 42.624 22.4341 39.8627 22.4341Z" fill="black"/>
<path d="M10.1379 27.434C10.1379 24.6728 12.3765 22.4341 15.1379 22.4341C17.8994 22.4341 20.1379 24.6728 20.1379 27.434C20.1379 30.1955 17.8994 32.434 15.1379 32.434C12.3765 32.434 10.1379 30.1955 10.1379 27.434Z" fill="black"/>
<path fill-rule="evenodd" clip-rule="evenodd" d="M7.5 0C3.35788 0 0 3.35788 0 7.5V47.5C0 51.6423 3.35788 55 7.5 55H47.5C51.6423 55 55 51.6423 55 47.5V7.5C55 3.35788 51.6423 0 47.5 0H7.5ZM47.5 5H7.5C6.1193 5 5 6.1193 5 7.5V47.5C5 48.8807 6.1193 50 7.5 50H47.5C48.8807 50 50 48.8807 50 47.5V7.5C50 6.1193 48.8807 5 47.5 5Z" fill="black"/>
</svg>
